/* XPM */
static char * Easter_Rainbow48x16_xpm[] = {
"48 16 9 1",
" 	c None",
".	c #000000",
"+	c #FF0000",
"@	c #FF7000",
"#	c #FBFF00",
"$	c #00FF13",
"%	c #00FFFF",
"&	c #3C00FF",
"*	c #E100FB",
"..................++++++++++++..................",
"..............++++++++++++++++++++..............",
"...........+++++++@@@@@@@@@@@@+++++++...........",
".........+++++@@@@@@@@@@@@@@@@@@@@+++++.........",
".......++++@@@@@@@############@@@@@@@++++.......",
"......+++@@@@######################@@@@+++......",
".....++@@@@#######$$$$$$$$$$$$#######@@@@++.....",
"....++@@@#####$$$$$$$$$$$$$$$$$$$$#####@@@++....",
"...++@@#####$$$$$$$%%%%%%%%%%$$$$$$$#####@@++...",
"..++@@####$$$$$%%%%%%%%%%%%%%%%%%$$$$$####@@++..",
"..+@@####$$$$%%%%%%&&&&&&&&&&%%%%%%$$$$####@@+..",
".++@@###$$$%%%%%&&&&&&&&&&&&&&&&%%%%%$$$###@@++.",
".+@@###$$$%%%%&&&&&&********&&&&&&%%%%$$$###@@+.",
"++@@##$$$%%%&&&&&**************&&&&&%%%$$$##@@++",
"++@@##$$%%%&&&&******************&&&&%%%$$##@@++",
"++@@##$$%%%&&&********************&&&%%%$$##@@++"};
