/* XPM */
static char * Easter_Rainbow_Cross24x16_xpm[] = {
"24 16 9 1",
" 	c None",
".	c #E100FB",
"+	c #000000",
"@	c #FF0000",
"#	c #FF7000",
"$	c #FBFF00",
"%	c #00FF13",
"&	c #00FFFF",
"*	c #3C00FF",
"          ....          ",
"        ...+....        ",
"      ...@@+@@@...      ",
"    ...@@@@+@@@@@...    ",
"   ..@@@@##+###@@@@..   ",
"  ..@@@+++++++++#@@@..  ",
" ..@@@###$$+$$$###@@@.. ",
" .@@@###$$$+$$$$###@@@. ",
"..@@###$$%%+%%%$$###@@..",
".@@###$$%%%+%%%%$$###@@.",
".@@##$$%%%&+&&%%%$$##@@.",
"@@###$%%%&&+&&&%%%$###@@",
"@###$$%%&&&+*&&&%%$$###@",
"@##$$%%&&&*+**&&&%%$$##@",
"@##$$%%&&**+***&&%%$$##@",
"@##$$%%&&******&&%%$$##@"};
