/* XPM */
static char * HappyNewYear_xpm[] = {
"90 5 3 1",
"  	c None",
"Z	c #FF0000",
"X	c #00FF00",
"X   X   XXX   XXXX   XXXX  X   X     Z   Z  ZZZZZ  Z   Z     X   X  XXXXX   XXX   XXXX   Z",
"X   X  X   X  X   X  X   X X   X     ZZ  Z  Z      Z   Z     X   X  X      X   X  X   X  Z",
"XXXXX  XXXXX  XXXX   XXXX   XXX      Z Z Z  ZZZZ   Z Z Z      XXX   XXXX   XXXXX  XXXX   Z",
"X   X  X   X  X      X       X       Z  ZZ  Z      ZZ ZZ       X    X      X   X  X   X   ",
"X   X  X   X  X      X       X       Z   Z  ZZZZZ  Z   Z       X    XXXXX  X   X  X   X  Z"};
