/* XPM */
static char * HappyNewYear_cbm4_xpm[] = {
"66 24 13 1",
" 	c None",
".	c #FFFFFF",
"+	c #55AAAA",
"@	c #55FFFF",
"#	c #AAFFFF",
"$	c #00AAAA",
"%	c #5555FF",
"&	c #0000FF",
"*	c #FFAAFF",
"=	c #AA00AA",
"-	c #AA55AA",
";	c #AAAAFF",
">	c #FF55FF",
"..................................................................",
"......+@....#$....................................................",
"......$#....#$....................................................",
".....#$.....@@..#$$+#..#+@$$#..+@+$$#.@@...#$.....................",
".....#$.....$#.#$#.#$..@$#.#$..$+..#$.#+...$#.....................",
".....@$$$$$$$#.....#$..+@...$#.$#..#$.#$..#$......................",
".....+@#####$..#+$$$$..$#...$##$...#$..$..$#......................",
".....$#....#$.#$#..@+..$...#$.#$...#$..$##+.......................",
".....$#....@+.@+...$@.#$...#+.@+...+@..+#$#.......................",
"....#$.....+@.@+..@$#.@$@.#$#.+$#.#$...#$+........................",
"....#+.....$#..+$+#@$#+@@$$#..$#+$+#...#$.........................",
"......................$#......$........@@.........................",
"......................$......#$.......#$..........................",
"..%&.....&...........#$......@+..*=.#$+#--.....................=*.",
"..&&;...;&........................=*...*=......................=*.",
".;&;%...%%..;&&%;.;&...&;..%%.....*=..*=*..-==>...*-==*..*=*=**=..",
".;%.&;..%;.;%..;&.;&..%%%..&;......=*.=*..=*..-*..=*.*=*.*=>..*-..",
".%%.%%..&;.&....&;.&..&;%.;%.......>-=*..>>...*-......=*.>=...>>..",
".%;..&..&.;&&&&&&..&.;%;%.%;........=>...======>.*-====..->...-*..",
".&;..%;;&.;%.......&.%;;%;&.........=*...=*......=*..*=..=*...=...",
".&...;&;%.;%.......&;%.;%%;........*=....=*.....*=...>-..=*.......",
";&....&&%.;&;.;&;..%%;.;&&.........*=....--..>-.*=..*=>.*=...**...",
";%....;&;..;&&%;...%&...&%.........>-.....-==>...>=-**=**-...>-...",
".................................................................."};
