/* XPM */
static char * hello_txt[] = {
"32 8 8 1",
" 	c #FFFFFF",
".	c #FF3030",
"X	c #00FF00",
"o	c #0000FF",
"O	c #00EE00",
"+	c #00FFFF",
"@	c #FF00FF",
"#	c #008B00",
"  .  . .... .    .    .... .    ",
"  .  . .    .    .    .  . .    ",
"  .... ...  .    .    .  . .    ",
"  .  . .    .    .    .  .      ",
"  .  . .... .... .... .... .    ",
"                                ",
"  X o O o X o O o O o O + @ o # ",
"                                "};
