/* XPM */
static char * hippo_16x8_xpm[] = {
"16 8 2 1",
" 	c None",
".	c #00C8FF",
"   .        .   ",
"    ........    ",
"   ..........   ",
"   ..........   ",
" .............. ",
".... . .. . ....",
"..... .... .....",
"   ..........   "};
