/* XPM */
static char * Hippo_static_20x13_newer_xpm[] = {
"20 13 2 1",
"  	c None",
".	c #00C8FF",
"                    ",
"     .        .     ",
"     .. .... ..     ",
"      ........      ",
"     ..........     ",
"     ..  ..  ..     ",
"     ..........     ",
"   ..............   ",
"  ..... .... .....  ",
"  .... . .. . ....  ",
"  ..... .... .....  ",
"   ..............   ",
"     ..........     "};
