/* XPM */
static char * MerryChristmas_bw3_xpm[] = {
"66 24 5 1",
" 	c None",
".	c #FFFFFF",
"+	c #555555",
"@	c #000000",
"#	c #AAAAAA",
"..................................................................",
".....+@.....#@+...................................................",
".....@@#....@@#...................................................",
"....#@+#...#+@#..+@@+...@#@+#++@#@...#@#..........................",
"....#+++...@#@..++..++..@+..+@#.#@...++...........................",
"....++#+..++#+.#@...#@.#@...++...@#.#@............................",
"....+#.@..@.++.+@@@@@@.#+...@#...+#.++............................",
"....@#.@.++.+#.+#......++...@....++#@.............................",
"....@..+#@..@#.++...#..+#..#@....#++#.............................",
"...#@..+@#..@..#@..#@..@#..#+....#@@..............................",
"...#+..#+..#@...+@@+#.#@...++.....@#..............................",
".................................#+...............................",
"...........@#..........#+.......#@#...............................",
"..#+@@@#...@#...........#......@@#@.............................++",
".#@+###@+.#@.....................#@.............................@#",
"#@#....#+.#+#@@#..#++@.@#.#+@@+.#@@@.@#+@+.+@+...#+@@#..#+@@+...@#",
"++........+@#.#@..+@#..@..@#..@#.+#..@+..@+..+#..@#.#@#.@#..++.#@.",
"@#........++...@..++..#@.#@......@#.#@...@#..+#......@#.@#.....#+.",
"@.........@#..#@..@#..#+..+@+#...@..#+..#@...@#.#+@@@@..#@+#...++.",
"@.........@...#+..@...++....+@+.#@..++..#@...@..@#..#@....#@+..+#.",
"@#....#@.#@...++.#@...@#.....#@.#+..+#..++..#@.#@...++......@.....",
"#@###+@#.++...@#.#+...@#.@#..++.++..@#..+#..#+.#@..#@+.++..#@..#..",
".#+@@+#..++...@#.++..#@..#@@@+..#@+#@...@#..++..+@+##@##+@@+#.#@..",
".................................................................."};
