/* XPM */
static char * MerryXmas_xpm[] = {
"98 5 3 1",
"  	c None",
"x	c #FF0000",
"X	c #00FF00",
" x   x  xxxxx  xxxx   xxxx  x   x      XXXX  X   X  XXXX   X   XXXX  XXXXX  x   x   xxx    xxxx  X",
" xx xx  x      x   x  x   x x   x     X      X   X  X   X  X  X        X    xx xx  x   x  x      X",
" x x x  xxxx   xxxx   xxxx   xxx      X      XXXXX  XXXX   X   XXX     X    x x x  xxxxx   xxx   X",
" x   x  x      x   x  x   x   x       X      X   X  X   X  X      X    X    x   x  x   x      x   ",
" x   x  xxxxx  x   x  x   x   x        XXXX  X   X  X   X  X  XXXX     X    x   x  x   x  xxxx   X"};
