/* XPM */
static char * MerryChristmas_rg4_xpm[] = {
"66 24 10 1",
" 	c None",
".	c #FFFFFF",
"+	c #AA5555",
"@	c #AA0000",
"#	c #FFAAAA",
"$	c #FF5555",
"%	c #00AA00",
"&	c #AAAAAA",
"*	c #55AA55",
"=	c #AAFFAA",
"..................................................................",
".....+@.....#@$...................................................",
".....@@#....@@#...................................................",
"....#@+#...#+@#..$@@+...@#@$#+$@#@...#@#..........................",
"....#+$$...@#@..+$..$+..@$..$@#.#@...+$...........................",
"....$$#+..$$#+.#@...#@.#@...+$...@#.#@............................",
"....+#.@..@.$$.$@@@@@@.#+...@#...+#.+$............................",
"....@#.@.$$.+#.+#......$$...@....$$#@.............................",
"....@..+#@..@#.+$...#..+#..#@....#++#.............................",
"...#@..$@#..@..#@..#@..@#..#+....#@@..............................",
"...#+..#+..#@...$@@+#.#@...+$.....@#..............................",
".................................#+...............................",
"...........%&..........&*.......#@#...............................",
"..=*%%%&...%=...........=......@@#%.............................**",
".&%*==&%*.=%.....................=%.............................%&",
"=%=....=*.&*&%%&..&**%.%=.&*%%*.&%%%.%&*%*.*%*...=*%%&..=*%%*...%=",
"**........*%&.&%..*%=..%..%=..%=.*&..%*..%*..*&..%&.=%=.%&..**.=%.",
"%=........**...%..**..=%.=%......%=.=%...%&..*&......%=.%&.....&*.",
"%.........%=..=%..%=..&*..*%*=...%..&*..=%...%=.=*%%%%..&%*&...**.",
"%.........%...&*..%...**....*%*.=%..**..&%...%..%&..=%....&%*..*&.",
"%&....=%.=%...**.=%...%&.....&%.&*..*&..**..=%.&%...**......%.....",
"&%&==*%&.**...%&.&*...%=.%=..**.**..%=..*&..&*.=%..&%*.**..&%..&..",
".&*%%*=..**...%=.**..=%..=%%%*..=%*=%...%=..**..*%*&&%&=*%%*=.&%..",
".................................................................."};
