/* XPM */
static char * olaf_32x32_xpbkg_xpm[] = {
"32 32 469 2",
"  	c None",
". 	c #8F8D8B",
"+ 	c #544D47",
"@ 	c #696358",
"# 	c #978D80",
"$ 	c #C4C4BE",
"% 	c #979393",
"& 	c #A9ABAB",
"* 	c #959693",
"= 	c #C2C2BF",
"- 	c #B3B4B1",
"; 	c #8B8A83",
"> 	c #B4B0A8",
", 	c #E1E5E0",
"' 	c #F1F8F8",
") 	c #D5DEDF",
"! 	c #CCD1D1",
"~ 	c #D0D6D4",
"{ 	c #CDD2CE",
"] 	c #DFDFDB",
"^ 	c #E8E8E4",
"/ 	c #EAECEB",
"( 	c #A7ABAB",
"_ 	c #746455",
": 	c #C8CDCF",
"< 	c #DDE2DF",
"[ 	c #D9E0DE",
"} 	c #94A1A4",
"| 	c #6C787D",
"1 	c #64777C",
"2 	c #8B9A9D",
"3 	c #E6E9E7",
"4 	c #E6E8E7",
"5 	c #E7EBE9",
"6 	c #9B9B97",
"7 	c #685D55",
"8 	c #E7F0EE",
"9 	c #E6EAE7",
"0 	c #EDEEEB",
"a 	c #A1AEAF",
"b 	c #C0C9CC",
"c 	c #D2D7D7",
"d 	c #E3E7E5",
"e 	c #7E898B",
"f 	c #C1CBCA",
"g 	c #DEE3E3",
"h 	c #BFCDCE",
"i 	c #D9E2E2",
"j 	c #A1A09C",
"k 	c #594F44",
"l 	c #D2DAE1",
"m 	c #E1E5E1",
"n 	c #E9EDEA",
"o 	c #F2F3F0",
"p 	c #F0EFEE",
"q 	c #E4EAE4",
"r 	c #A7BABC",
"s 	c #8B908E",
"t 	c #020303",
"u 	c #7C7E7F",
"v 	c #EAF0F0",
"w 	c #909C9D",
"x 	c #718184",
"y 	c #516265",
"z 	c #3B4C54",
"A 	c #C1CAC8",
"B 	c #7B7974",
"C 	c #CAD5D4",
"D 	c #D0D7D6",
"E 	c #E4E4E5",
"F 	c #EEEEEC",
"G 	c #F5F3EF",
"H 	c #D5DAD8",
"I 	c #8DABAF",
"J 	c #76797A",
"K 	c #000000",
"L 	c #626566",
"M 	c #D0DADA",
"N 	c #95A1A5",
"O 	c #DCDFE0",
"P 	c #F2F5F5",
"Q 	c #B9C1C2",
"R 	c #6E7878",
"S 	c #BBBFBC",
"T 	c #BFCDD4",
"U 	c #B1BEC2",
"V 	c #C1CBCE",
"W 	c #DCE0DF",
"X 	c #EAECE8",
"Y 	c #F0F0ED",
"Z 	c #EFEFED",
"` 	c #8CAAAF",
" .	c #93A5AA",
"..	c #758585",
"+.	c #C1B3AA",
"@.	c #B69B86",
"#.	c #A99884",
"$.	c #100A08",
"%.	c #3E3D3F",
"&.	c #EFF2F4",
"*.	c #97A2A1",
"=.	c #E6EDEB",
"-.	c #BDC8C9",
";.	c #ABB8BC",
">.	c #BFCACC",
",.	c #D7DDDB",
"'.	c #E7E9E6",
").	c #F0F0EE",
"!.	c #F3F3F1",
"~.	c #E6EAE8",
"{.	c #ADC2C6",
"].	c #B49B8F",
"^.	c #E16E3C",
"/.	c #F76C21",
"(.	c #F29A4A",
"_.	c #8F6A3D",
":.	c #575758",
"<.	c #D9E4E3",
"[.	c #ABB7B6",
"}.	c #E8ECE9",
"|.	c #BACDD7",
"1.	c #BCC5C8",
"2.	c #AAB8BC",
"3.	c #C1CDCF",
"4.	c #D3DBD8",
"5.	c #E3E7E4",
"6.	c #F4F4F2",
"7.	c #F3F4EF",
"8.	c #E4D3C8",
"9.	c #DE744B",
"0.	c #ED6431",
"a.	c #F66224",
"b.	c #FA974B",
"c.	c #F7C175",
"d.	c #C9C3B3",
"e.	c #A6BDC2",
"f.	c #CFD9D7",
"g.	c #EAEDE9",
"h.	c #BECDCE",
"i.	c #BEC9CC",
"j.	c #BAC4C5",
"k.	c #99A6AC",
"l.	c #D4DAD7",
"m.	c #E4E6E4",
"n.	c #F1F2EE",
"o.	c #D3B9AB",
"p.	c #D16039",
"q.	c #E3623A",
"r.	c #EB6834",
"s.	c #FA914A",
"t.	c #FFCC89",
"u.	c #B8A388",
"v.	c #A8C0C5",
"w.	c #F1EFEC",
"x.	c #EEF1F0",
"y.	c #BDCCD1",
"z.	c #C0C9CA",
"A.	c #BDC7C9",
"B.	c #3E5863",
"C.	c #B6C0C3",
"D.	c #E7E8E7",
"E.	c #F0F1EF",
"F.	c #CDC6BD",
"G.	c #B16247",
"H.	c #C84221",
"I.	c #DB603A",
"J.	c #E66B36",
"K.	c #F8A964",
"L.	c #E5CEBD",
"M.	c #EFF0EC",
"N.	c #EBF4F5",
"O.	c #C0CACB",
"P.	c #C3CCCE",
"Q.	c #A8B4B8",
"R.	c #38515C",
"S.	c #4A616B",
"T.	c #D5DBDB",
"U.	c #F2F2F0",
"V.	c #F0F1EC",
"W.	c #D6D6D0",
"X.	c #B59887",
"Y.	c #AD6248",
"Z.	c #AE4B2A",
"`.	c #C25B34",
" +	c #E0AB89",
".+	c #ECEBE6",
"++	c #ECEDEB",
"@+	c #F3F5F1",
"#+	c #BEC7C9",
"$+	c #C4CDCF",
"%+	c #919FA5",
"&+	c #354E59",
"*+	c #26424F",
"=+	c #647680",
"-+	c #E5E7E5",
";+	c #F1F2EF",
">+	c #EFF0ED",
",+	c #DDDDD9",
"'+	c #C9C7BB",
")+	c #C3B6A8",
"!+	c #C1AFA1",
"~+	c #D3CCBE",
"{+	c #E7E5DE",
"]+	c #EBEBE6",
"^+	c #EFF0EE",
"/+	c #ECEFED",
"(+	c #E4EBEB",
"_+	c #BAC4C6",
":+	c #7D8C92",
"<+	c #2C4651",
"[+	c #223D49",
"}+	c #15313F",
"|+	c #818F95",
"1+	c #E5E7E4",
"2+	c #EEEEED",
"3+	c #E5E5E2",
"4+	c #DCDDD6",
"5+	c #DDDCD6",
"6+	c #E8E8E2",
"7+	c #F1F0EB",
"8+	c #EDEEE9",
"9+	c #ECEDE8",
"0+	c #EBEBE9",
"a+	c #EBEDEA",
"b+	c #E2E8E6",
"c+	c #BCCCD0",
"d+	c #C3CBCD",
"e+	c #6A7C84",
"f+	c #25404B",
"g+	c #1C3742",
"h+	c #0C2935",
"i+	c #3E5158",
"j+	c #C1C7C6",
"k+	c #D9DEDD",
"l+	c #E9E9E5",
"m+	c #EAEBE6",
"n+	c #EEEEE9",
"o+	c #EFF0EB",
"p+	c #F2F3EF",
"q+	c #EEEFEB",
"r+	c #E8E8E6",
"s+	c #E8E9E6",
"t+	c #E5E9E7",
"u+	c #CED9DA",
"v+	c #BBCBCC",
"w+	c #B8C2C4",
"x+	c #C1C8CB",
"y+	c #5F737A",
"z+	c #1F3A46",
"A+	c #18343F",
"B+	c #092632",
"C+	c #77868A",
"D+	c #C6CED1",
"E+	c #B7C2C3",
"F+	c #C3CAC9",
"G+	c #E0E1DD",
"H+	c #E9E9E3",
"I+	c #ECECE7",
"J+	c #ECEEE9",
"K+	c #E7E8E2",
"L+	c #E2E3E0",
"M+	c #DEE2E1",
"N+	c #D1D9D8",
"O+	c #C6D5D9",
"P+	c #C3CDCD",
"Q+	c #C0C8CA",
"R+	c #5B7077",
"S+	c #1D3945",
"T+	c #0F2B37",
"U+	c #5B7179",
"V+	c #C2CBCD",
"W+	c #BFC9CB",
"X+	c #AFB9BD",
"Y+	c #A1AEB2",
"Z+	c #B2B9B9",
"`+	c #C8CFCE",
" @	c #DDDFDA",
".@	c #E0E3DF",
"+@	c #DADDDA",
"@@	c #D2D6D3",
"#@	c #C8D2D2",
"$@	c #BACBD0",
"%@	c #BAC9D0",
"&@	c #B9C2C4",
"*@	c #BFC5C8",
"=@	c #5D7278",
"-@	c #1E3B46",
";@	c #183641",
">@	c #143341",
",@	c #0C2D38",
"'@	c #48626B",
")@	c #AAB6B9",
"!@	c #B3BDBE",
"~@	c #AFB9BC",
"{@	c #9DA8AB",
"]@	c #94A0A3",
"^@	c #51666D",
"/@	c #778A8F",
"(@	c #ADB8BB",
"_@	c #B8C1C2",
":@	c #B8C9D0",
"<@	c #B9C1C3",
"[@	c #BEC4C7",
"}@	c #64787E",
"|@	c #1E3D49",
"1@	c #193844",
"2@	c #153544",
"3@	c #163443",
"4@	c #10303E",
"5@	c #153442",
"6@	c #556D75",
"7@	c #819095",
"8@	c #8C9BA1",
"9@	c #78888E",
"0@	c #1B343E",
"a@	c #5B6E76",
"b@	c #AFB9BB",
"c@	c #BFC8C9",
"d@	c #B7C7CF",
"e@	c #69513B",
"f@	c #BDCAD1",
"g@	c #B9C0C3",
"h@	c #BCC3C5",
"i@	c #738389",
"j@	c #1C3B4A",
"k@	c #183847",
"l@	c #153545",
"m@	c #163645",
"n@	c #173746",
"o@	c #173745",
"p@	c #23414C",
"q@	c #344E59",
"r@	c #223D47",
"s@	c #55666D",
"t@	c #B7BDBD",
"u@	c #C6CCCB",
"v@	c #B8C4CC",
"w@	c #715941",
"x@	c #6A533F",
"y@	c #C6D0D2",
"z@	c #B8C0C3",
"A@	c #BABFC2",
"B@	c #89959B",
"C@	c #1B3C48",
"D@	c #173744",
"E@	c #163642",
"F@	c #153543",
"G@	c #1A3A49",
"H@	c #214150",
"I@	c #21414F",
"J@	c #274550",
"K@	c #244150",
"L@	c #495E65",
"M@	c #BCC2C1",
"N@	c #CACECA",
"O@	c #BCCACF",
"P@	c #523E31",
"Q@	c #70573F",
"R@	c #554633",
"S@	c #BCC6C9",
"T@	c #B8BDC0",
"U@	c #B2B7B8",
"V@	c #213843",
"W@	c #13343E",
"X@	c #14343F",
"Y@	c #163643",
"Z@	c #1E3E4D",
"`@	c #254554",
" #	c #244552",
".#	c #213F4B",
"+#	c #4D6268",
"@#	c #CDD0CD",
"##	c #CCD1CE",
"$#	c #C5CED1",
"%#	c #675542",
"&#	c #B5C0C6",
"*#	c #B7BFC2",
"=#	c #B2B9BB",
"-#	c #BEC0C1",
";#	c #757E85",
">#	c #0B2833",
",#	c #0A2833",
"'#	c #11303B",
")#	c #1A3A45",
"!#	c #1D3E4A",
"~#	c #21404C",
"{#	c #6A7D83",
"]#	c #DDDED9",
"^#	c #D0D5D1",
"/#	c #C1CCD1",
"(#	c #5F4937",
"_#	c #B5BEC1",
":#	c #B3BBBE",
"<#	c #AFB7B9",
"[#	c #B5BCBB",
"}#	c #707A80",
"|#	c #172C35",
"1#	c #001724",
"2#	c #04212F",
"3#	c #263D48",
"4#	c #929EA2",
"5#	c #E1E1DC",
"6#	c #D5D8D3",
"7#	c #BAC2C2",
"8#	c #B2BABD",
"9#	c #B2BBBC",
"0#	c #AFB8B7",
"a#	c #BFC3C5",
"b#	c #CBD0CA",
"c#	c #C1C4C3",
"d#	c #A5ADAC",
"e#	c #ADB7B5",
"f#	c #DEDCDC",
"g#	c #E4E5DD",
"h#	c #CFD5D1",
"i#	c #C5D0D1",
"j#	c #4F3F27",
"k#	c #5A422D",
"l#	c #B8C0C2",
"m#	c #B5BDC0",
"n#	c #B2BABC",
"o#	c #B0B8B9",
"p#	c #C6CFCC",
"q#	c #DEE0DA",
"r#	c #E9EBE4",
"s#	c #E8EAE2",
"t#	c #DFE2DA",
"u#	c #CAD0CF",
"v#	c #BDC8CF",
"w#	c #5E4D3D",
"x#	c #64513C",
"y#	c #B0C1CA",
"z#	c #B9C1C4",
"A#	c #BDC5C8",
"B#	c #BCC4C6",
"C#	c #B0B9BC",
"D#	c #B5BEBF",
"E#	c #BEC7C6",
"F#	c #B9C3C8",
"G#	c #B3C5CB",
"H#	c #6A5341",
"I#	c #6F593F",
"J#	c #543C28",
"K#	c #AABFC6",
"L#	c #ADBABB",
"M#	c #C1C9CB",
"N#	c #CACFD0",
"O#	c #C8CCCE",
"P#	c #C2CACB",
"Q#	c #C1CACA",
"R#	c #BEC8C7",
"S#	c #CDDADB",
"T#	c #6B5039",
"U#	c #856853",
"V#	c #483321",
"W#	c #CCD9DD",
"X#	c #CBD4D6",
"Y#	c #C4CFCF",
"Z#	c #C3C9CB",
"`#	c #CCD0D1",
" $	c #D3D5D2",
".$	c #D1D3D1",
"+$	c #D1D3D4",
"@$	c #D8DBD9",
"#$	c #E2E6E2",
"$$	c #EDEFED",
"%$	c #B7B6AD",
"&$	c #665142",
"*$	c #6A513A",
"                                                                ",
"                                                                ",
"                            . + @ # $ %                         ",
"                          & * = - ; > , '                       ",
"                        ) ! ~ { ] ^ / ( _ :                     ",
"                      < [ } | 1 2 3 4 5 6 7                     ",
"                  8 9 0 a b c d e f g h i j k                   ",
"            l m n o p q r s t u v w x y z A B                   ",
"            C D E F G H I J K L M N O P Q R S                   ",
"          T U V W X Y Z `  ...+.@.#.$.%.&.*.=.                  ",
"          -.;.>.,.'.).!.~.{.].^./.(._.:.<.[.}.                  ",
"        |.1.2.3.4.5.Z 6.7.8.9.0.a.b.c.d.e.f.g.                  ",
"        h.i.j.k.l.m.).6.n.o.p.q.r.s.t.u.v.w.x.                  ",
"        y.z.A.B.C.D.E.6.n.F.G.H.I.J.K.L.^ M.N.                  ",
"        O.P.Q.R.S.T.).U.V.W.X.Y.Z.`. +.+++).@+                  ",
"        #+$+%+&+*+=+-+;+>+,+'+)+!+~+{+]+F ^+/+(+                ",
"        _+P.:+<+[+}+|+1+2+3+4+5+6+7+8+9+0+).a+b+                ",
"      c+_+d+e+f+g+h+i+j+k+l+m+n+o+p+q+m+r+s+t+u+                ",
"      v+w+x+y+z+A+B+C+D+E+F+G+H+I+J+m+K+L+M+N+O+                ",
"      P+w+Q+R+S+A+T+U+V+W+X+Y+Z+`+ @.@+@@@#@$@                  ",
"      %@&@*@=@-@;@>@,@'@)@!@~@{@]@^@&+/@(@_@                    ",
"      :@<@[@}@|@1@2@3@4@5@6@7@8@9@0@a@b@c@d@          e@        ",
"      f@g@h@i@j@k@l@2@m@n@o@p@q@r@s@t@u@v@            w@x@      ",
"      y@z@A@B@C@D@E@F@G@H@I@J@K@L@M@N@O@          P@Q@R@        ",
"      S@z@T@U@V@W@X@Y@Z@`@ #.#+#@###$#            %#            ",
"      &#*#=#-#;#>#,#'#)#!#~#{#]#^#/#            (#              ",
"      _#:#<#[#[#}#|#1#2#3#4#5#6#y@                              ",
"      7#8#9#0#a#b#c#d#e#f#g#h#i#        j#k#                    ",
"      l#m#*#n#o#p#q#r#s#t#u#v#        w#x#                      ",
"      y#z#A#B#_#C#D#E#A F#G#      H#I#J#                        ",
"      K#L#M#! N#O#P#Q#R#S#    T#U#                              ",
"V#  W#X#Y#Z#`# $.$+$@$#$$$%$&$*$                                "};
