/* XPM */
static char *RWBCols3x80_xpm[] = {
"3 80 4 1",
"0	c #000000",
"1	c #FF0000",
"2	c #FFFFFF",
"3	c #0000FF",
"123",
"123",
"123",
"123",
"123",
"123",
"123",
"123",
"123",
"123",
"123",
"123",
"123",
"123",
"123",
"123",
"123",
"123",
"123",
"123",
"123",
"123",
"123",
"123",
"123",
"123",
"123",
"123",
"123",
"123",
"123",
"123",
"123",
"123",
"123",
"123",
"123",
"123",
"223",
"323",
"123",
"223",
"323",
"123",
"223",
"323",
"123",
"223",
"323",
"123",
"200",
"300",
"100",
"200",
"300",
"100",
"200",
"300",
"100",
"200",
"300",
"100",
"200",
"300",
"100",
"200",
"300",
"100",
"200",
"300",
"100",
"200",
"300",
"100",
"200",
"300",
"100",
"200",
"300",
"000"
};
