/* XPM */
static char * TuneTo_xpm[] = {
"82 5 3 1",
"  	c None",
"x	c #FF0000",
"X	c #00FF00",
"XXXXX  X   X  X   X  XXXXX     XXXXX   XXX       xxx   xxxx       x   XXXXX  X   X",
"  X    X   X  XX  X  X           X    X   X     x   x      x     xx   X      XX XX",
"  X    X   X  X X X  XXXX        X    X   X      xxxx   xxx       x   XXXX   X X X",
"  X    X   X  X  XX  X           X    X   X         x  x          x   X      X   X",
"  X     XXX   X   X  XXXXX       X     XXX       xxx   xxxxx  xx  x   X      X   X"};
