/* XPM */
static char * USflag24x13_xpm[] = {
"24 13 4 2",
"  	c #000000",
". 	c #FF0000",
"# 	c #0000FF",
"& 	c #FFFFFF",
"# # # # # # # # # . . . . . . . . . . . . . . . ",
"# & # & # & # & # & & & & & & & & & & & & & & & ",
"# # & # & # & # # . . . . . . . . . . . . . . . ",
"# & # & # & # & # & & & & & & & & & & & & & & & ",
"# # & # & # & # # . . . . . . . . . . . . . . . ",
"# & # & # & # & # & & & & & & & & & & & & & & & ",
"# # # # # # # # # . . . . . . . . . . . . . . . ",
"& & & & & & & & & & & & & & & & & & & & & & & & ",
". . . . . . . . . . . . . . . . . . . . . . . . ",
"& & & & & & & & & & & & & & & & & & & & & & & & ",
". . . . . . . . . . . . . . . . . . . . . . . . ",
"& & & & & & & & & & & & & & & & & & & & & & & & ",
". . . . . . . . . . . . . . . . . . . . . . . . "};
