/* XPM */
static char * Welcome2022_cm4_xpm[] = {
"66 24 10 1",
" 	c None",
".	c #FFFFFF",
"+	c #00AAAA",
"@	c #55AAAA",
"#	c #55FFFF",
"$	c #AAFFFF",
"%	c #FFAAFF",
"&	c #AA55AA",
"*	c #AA00AA",
"=	c #FF55FF",
"...........................+......................................",
".....@#....+$...$+........$+......................................",
".....#@...#+$...@#........#@......................................",
".....#@...+##..$+..$++@$..@#..#++#...#++@...@#@+@.#++$..$@++$.....",
".....$+..$#$#..##.$@..$+..+$.@#..+$.@#..#@..+@..+@$.#@.$+$.$+$....",
".....$+..+$$@..+$.+....+$.+$$+...$$$+...$+..+$..@#..#@.@$...@$....",
".....$+.$@.$@.#@.$++++++.$+.##.....##...$+.$+...+$..##.++++++$....",
"......+.@$.$+.+$.$@......$@.@#.....@#...$+.$+...+...+$$+..........",
"......+$@...+$@..$@......##.@#...$.@#...@#.##..$+...+$$+..........",
"......++$...++$..$+$.$+$.@$.$+..@#.$+..$+..@$..$@..$+..+#..@$.....",
"......++....++....$++@$..+$..#++#...#++@$..+$..##..$+..$@++$......",
"..................................................................",
"..................................................................",
"........................%&**%...%&**%...=**&....=**=...%*.........",
"........................*%.%*%.%*%.%*..=*%.&&..&&.%*=..=&.........",
".......................%=...&=.&=...*%.=%..%*..=...=&..&%.........",
"............................*%.*....&%.....%*......&=..*%.........",
"...........................=&.%*....*%....%*%.....%*...*..........",
"..........................&&..==....*....%*%.....=*...%*..........",
"........................%*%...==...%*...&&.....%*=....%=..........",
".......................=&.....==...&=.%*%.....%*%.................",
"......................%*......%*%.=*..*%.....%*%......%...........",
"......................******%..%**=..%******.&*****=..*%..........",
".................................................................."};
