/* XPM */
static char * pacman_ghost_up_xpm[] = {
"48 16 4 1",
" 	c #000000",
".	c #FF0000",
"+	c #0000FF",
"@	c #FFFFFF",
"                                                ",
"      ....                                      ",
"    ........                                    ",
"   ..........                                   ",
"  ..++....++..                                  ",
"  .@++@..@++@.                                  ",
"  .@@@@..@@@@.                                  ",
" ..@@@@..@@@@..                                 ",
" ...@@....@@...                                 ",
" ..............                                 ",
" ..............                                 ",
" ..............                                 ",
" ..............                                 ",
" .... .... ....                                 ",
"  ..   ..   ..                                  ",
"                                                "};
