/* XPM */
static char * pacman_ghost_left_xpm[] = {
"48 16 5 1",
" 	c None",
".	c #000000",
"+	c #FF0000",
"@	c #FFFFFF",
"#	c #0000FF",
"................................................",
"......++++......................................",
"....++++++++....................................",
"...++++++++++...................................",
"..+@@++++@@+++..................................",
"..@@@@++@@@@++..................................",
"..##@@++##@@++..................................",
".+##@@++##@@+++.................................",
".++@@++++@@++++.................................",
".++++++++++++++.................................",
".++++++++++++++.................................",
".++++++++++++++.................................",
".++++++++++++++.................................",
".++++.++++.++++.................................",
"..++...++...++..................................",
"................................................"};
