/* XPM */
static char * pacman_ghost_blank_xpm[] = {
"48 16 4 1",
" 	c None",
".	c #000000",
"+	c #FF0000",
"@	c #FFFFFF",
"................................................",
"......++++..............++++....................",
"....++++++++..........++++++++..................",
"...++++++++++........++++++++++.................",
"..++@@++++@@++......++@@++++@@++................",
"..+@@@@++@@@@+......+@@@@++@@@@+................",
"..+@@@@++@@@@+......+@@@@++@@@@+................",
".++@@@@++@@@@++....++@@@@++@@@@++...............",
".+++@@++++@@+++....+++@@++++@@+++...............",
".++++++++++++++....++++++++++++++...............",
".++++++++++++++....++++++++++++++...............",
".++++++++++++++....++++++++++++++...............",
".++++++++++++++....++++++++++++++...............",
".++++.++++.++++....++.+++..+++.++...............",
"..++...++...++.....+...++..++...+...............",
"................................................"};
