/* XPM */
static char * angel_xpm[] = {
"20 35 6 1",
" 	c #FFFFFFFFFFFF",
".	c #0000EEEE0000",
"X	c #91912C2CEEEE",
"o	c #EEEEEEEE0000",
"O	c #FFFFA5A50000",
"+	c #0000FFFFFFFF",
"     ..........     ",
"     ..........     ",
"     ..........     ",
"     ..........     ",
"   XXXXXXXXXXXXXX   ",
"      ooo  ooo      ",
"      ooo  ooo      ",
"      ooo  ooo      ",
"      ooo  ooo      ",
"      ooo  ooo      ",
"      ooo  ooo      ",
"OOOOOOooo  oooOOOOOO",
"OOOOOOo o  o oOOOOOO",
"OOOOOO++++++++OOOOOO",
"OOOOOO++++++++OOOOOO",
"OOOOOO++++++++OOOOOO",
"OOOOOO++++++++OOOOOO",
"OOOOOO++++++++OOOOOO",
"OOOOOO++++++++OOOOOO",
"OOOOOO++++++++OOOOOO",
"OOOOOO++++++++OOOOOO",
"OOOOOO++++++++OOOOOO",
"OOOOOO++++++++OOOOOO",
"OOOOOO++++++++OOOOOO",
"OOOOOO++++++++OOOOOO",
"OOOOOO++++++++OOOOOO",
"OOOOOO++++++++OOOOOO",
"OOOOOO++++++++OOOOOO",
"OOOOOO++++++++OOOOOO",
"OOOOOO++++++++OOOOOO",
"OOOOOO++++++++OOOOOO",
"OOOOOO++++++++OOOOOO",
"OOOOOO++++++++OOOOOO",
"OOOOOO++++++++OOOOOO",
"OOOOOO++++++++OOOOOO"};
