/* XPM */
static char * angel_shaped_wings_xpm[] = {
"20 35 8 1",
" 	c None",
".	c #FFFFFF",
"+	c #00EE00",
"@	c #912CEE",
"#	c #EEEE00",
"$	c #FFA500",
"%	c #00FFFF",
"&	c #FF0000",
".....++++++++++.....",
".....++++++++++.....",
".....++++++++++.....",
".....++++++++++.....",
"...@@@@@@@@@@@@@@...",
"......###..###......",
"......###..###......",
"......###..###......",
"......###..###......",
"......###..###......",
"......###..###......",
"...$..###..###..$...",
"..$$$.#.#..#.#.$$$..",
".$$$$.%%%%%%%&.$$$$.",
".$$$$.%%%%%%%&.$$$$.",
"$$$$$$%%%%%%%&$$$$$$",
"$$$$$$%%%%%%%&$$$$$$",
"$$$$$$%%%%%%%&$$$$$$",
"$$$$$$%%%%%%%&$$$$$$",
"$$$$$$%%%%%%%&$$$$$$",
"$$$$$$%%%%%%%&$$$$$$",
"$$$$$$%%%%%%%&$$$$$$",
"$$$$$$%%%%%%%&$$$$$$",
"$$$$$$%%%%%%%&$$$$$$",
"$$$$$$%%%%%%%&$$$$$$",
"$$$$$$%%%%%%%&$$$$$$",
"$$$$$$%%%%%%%&$$$$$$",
"$$$$$$%%%%%%%&$$$$$$",
".$$$$.%%%%%%%&.$$$$.",
"..$$$.%%%%%%%&.$$$..",
"..$$..%%%%%%%&..$$..",
"...$..%%%%%%%&..$...",
"$$$$$$%%%%%%%%$$$$$$",
"$$$$$$%%%%%%%%$$$$$$",
"$$$$$$%%%%%%%%$$$$$$"};
