/* XPM */
static char * devpanel_hello_xpm[] = {
"32 8 2 1",
" 	c #CCCCCC",
".	c #FF0000",
"                                ",
" .  . .... .    .    .... .     ",
" .  . .    .    .    .  . .     ",
" .... ...  .    .    .  . .     ",
" .  . .    .    .    .  .       ",
" .  . .... .... .... .... .     ",
"                                ",
"                                "};
