/* XPM */
static char * fence_alternating_xpm[] = {
"16 7 3 1",
" 	c #0000CDCD0000",
".	c #FFFFFFFFFFFF",
"X	c #FFFF30303030",
" ..X . X ... X .",
" . X X X X.X X .",
" X X X X X.X X X",
" X X X X X X X X",
" X X X X X X X X",
" X X X X X X X X",
" X X X X X X X X"};
