/* XPM */
static char * joseph_xpm[] = {
"18 23 3 1",
" 	c #C0C0FFFFFFFF",
".	c #FFFFFFFFFFFF",
"X	c #00000000EEEE",
"                  ",
"                  ",
"                  ",
"                  ",
"...XXXXXXXXXXXX...",
"...XXXXXXXXXXXX...",
"...XXXXXXXXXXXX...",
"...XXXXXXXXXXXX...",
"...XXXXXXXXXXXX...",
"...XXXXXXXXXXXX...",
"...XXXXXXXXXXXX...",
"...XXXXXXXXXXXX...",
"...XXXXXXXXXXXX...",
"...XXXXXXXXXXXX...",
"...XXXXXXXXXXXX...",
"...XXXXXXXXXXXX...",
"...XXXXXXXXXXXX...",
"...XXXXXXXXXXXX...",
"...XXXXXXXXXXXX...",
"...XXXXXXXXXXXX...",
"...XXXXXXXXXXXX...",
"...XXXXXXXXXXXX...",
"...XXXXXXXXXXXX..."};
