/* XPM */
static char * mary_xpm[] = {
"22 22 3 1",
" 	c #C0C0FFFFFFFF",
".	c #FFFFFFFFFFFF",
"X	c #FFFF0000FFFF",
"                      ",
"                      ",
"..                  ..",
"..                  ..",
".....XXXXXXXXXXXX.....",
".....XXXXXXXXXXXX.....",
".....XXXXXXXXXXXX.....",
".....XXXXXXXXXXXX.....",
".....XXXXXXXXXXXX.....",
".....XXXXXXXXXXXX.....",
".....XXXXXXXXXXXX.....",
".....XXXXXXXXXXXX.....",
".....XXXXXXXXXXXX.....",
".....XXXXXXXXXXXX.....",
".....XXXXXXXXXXXX.....",
".....XXXXXXXXXXXX.....",
".....XXXXXXXXXXXX.....",
".....XXXXXXXXXXXX.....",
".....XXXXXXXXXXXX.....",
".....XXXXXXXXXXXX.....",
".....XXXXXXXXXXXX.....",
".....XXXXXXXXXXXX....."};
