/* XPM */
static char * wiseman_xpm[] = {
"18 24 3 1",
" 	c #FFFFA5A50000",
".	c #FFFFFFFFFFFF",
"X	c #00000000FFFF",
"                  ",
"                  ",
"      ......      ",
"      ......      ",
"...XXXXXXXXXXXX...",
"...XXXXXXXXXXXX...",
"...XXXXXXXXXXXX...",
"...XXXXXXXXXXXX...",
"...XXXXXXXXXXXX...",
"...XXXXXXXXXXXX...",
"...XXXXXXXXXXXX...",
"...XXXXXXXXXXXX...",
"...XXXXXXXXXXXX...",
"...XXXXXXXXXXXX...",
"...XXXXXXXXXXXX...",
"...XXXXXXXXXXXX...",
"...XXXXXXXXXXXX...",
"...XXXXXXXXXXXX...",
"...XXXXXXXXXXXX...",
"...XXXXXXXXXXXX...",
"...XXXXXXXXXXXX...",
"...XXXXXXXXXXXX...",
"...XXXXXXXXXXXX...",
"...XXXXXXXXXXXX..."};
